<svg id="RRDLogo" xmlns="http://www.w3.org/2000/svg" width="236.398" height="207" viewBox="0 0 236.398 207">
  <path id="Path_2" data-name="Path 2" d="M58.149,57.7H82.081V209.649H224.912V184.578H263.4l-29.939,29.939v18.874H217.884v16.334H202.689V264.35H27V88.85H42v-15H58.149Zm0,22.222H48.083V243.647H211.806V233.391H58.149ZM42,94.929H33.078V258.272H196.611v-8.547H42ZM230.989,208.39l17.735-17.735H230.989Zm-3.609,7.337v11.586H64.227V63.779H76V215.727Z" transform="translate(-27 -57.35)" fill="#fff" fill-rule="evenodd"/>
  <path id="Path_3" data-name="Path 3" d="M429.445,319.176h24.692l-18.613,20.133h-6.078Z" transform="translate(-227.735 -187.771)" fill="#fff"/>
  <path id="Path_4" data-name="Path 4" d="M158.681,70.828q-.023,1.1-.024,2,.024.906.024,1.788.024.858.024,1.764.024.906.024,2h-3.577v-21.1h8.321a5.7,5.7,0,0,1,2.384.477,8.486,8.486,0,0,1,1.049.6,4.646,4.646,0,0,1,.93.763,6.468,6.468,0,0,1,1.335,1.955,5.559,5.559,0,0,1,.5,2.289,6.843,6.843,0,0,1-.071.906,6.676,6.676,0,0,1-.191,1.073,7.3,7.3,0,0,1-.31,1.049,3.174,3.174,0,0,1-.453.835A6.951,6.951,0,0,1,166.5,69.04a18.7,18.7,0,0,1-2.337,1.1,37.584,37.584,0,0,0,2.455,3.91q1.6,2.241,3.219,4.339h-4.124q-.811-1.049-1.431-1.979t-1.216-1.836q-.572-.906-1.192-1.836t-1.43-2a8.023,8.023,0,0,1-1,.1q-.978.048-.5.1.477.024.167.024A.659.659,0,0,1,158.681,70.828Zm7.368-7.3a2.481,2.481,0,0,0-.763-1.86,2.706,2.706,0,0,0-.858-.6,3.457,3.457,0,0,0-.5-.143,1.733,1.733,0,0,0-.5-.072h-4.745l.048,5.651h4.744a2.411,2.411,0,0,0,1-.215,2.708,2.708,0,0,0,.859-.572,3.557,3.557,0,0,0,.572-.834,1.671,1.671,0,0,0,.143-.691q.023-.477.024-.739Z" transform="translate(-90.921 -57.142)" fill="#fff"/>
  <path id="Path_5" data-name="Path 5" d="M198.6,78.268V57.048h13.233v3.576H202.2v5.245h5.1v3.576h-5.1v5.245h9.633v3.576Z" transform="translate(-112.593 -57.024)" fill="#fff"/>
  <path id="Path_6" data-name="Path 6" d="M253.916,67.61a10.57,10.57,0,0,1-.835,4.149,10.815,10.815,0,0,1-2.265,3.386,10.292,10.292,0,0,1-3.386,2.289,10.726,10.726,0,0,1-4.149.811h-5.889l-.31-.31V57.31l.334-.31h5.865a10.725,10.725,0,0,1,4.149.811,10.3,10.3,0,0,1,3.386,2.265,10.9,10.9,0,0,1,2.289,3.409,10.4,10.4,0,0,1,.835,4.125Zm-3.6-.048a7.041,7.041,0,0,0-.548-2.742,6.4,6.4,0,0,0-1.5-2.241,6.784,6.784,0,0,0-2.217-1.478,7.155,7.155,0,0,0-2.742-.548h-2.6V74.62h2.6a7.155,7.155,0,0,0,2.742-.548,7.091,7.091,0,0,0,3.72-3.719,7.158,7.158,0,0,0,.548-2.742Z" transform="translate(-131.787 -57)" fill="#fff"/>
  <path id="Path_7" data-name="Path 7" d="M158.681,129.945q-.023,1.1-.024,2,.024.906.024,1.788.024.859.024,1.765.024.906.024,2h-3.577V116.4h8.321a5.7,5.7,0,0,1,2.384.477,8.49,8.49,0,0,1,1.049.6,4.651,4.651,0,0,1,.93.763,6.469,6.469,0,0,1,1.335,1.955,5.56,5.56,0,0,1,.5,2.289,6.844,6.844,0,0,1-.071.906,6.681,6.681,0,0,1-.191,1.073,7.307,7.307,0,0,1-.31,1.049,3.174,3.174,0,0,1-.453.835,6.956,6.956,0,0,1-2.146,1.812,18.662,18.662,0,0,1-2.337,1.1,37.573,37.573,0,0,0,2.455,3.91q1.6,2.241,3.219,4.339h-4.124q-.811-1.05-1.431-1.979t-1.216-1.836q-.572-.906-1.192-1.836t-1.43-2a7.916,7.916,0,0,1-1,.1q-.978.047-.5.1.477.024.167.024A.661.661,0,0,1,158.681,129.945Zm7.368-7.3a2.481,2.481,0,0,0-.763-1.859,2.711,2.711,0,0,0-.858-.6,3.479,3.479,0,0,0-.5-.143,1.734,1.734,0,0,0-.5-.072h-4.745l.048,5.651h4.744a2.408,2.408,0,0,0,1-.215,2.71,2.71,0,0,0,.859-.572,3.56,3.56,0,0,0,.572-.835,1.674,1.674,0,0,0,.143-.692q.023-.477.024-.739Z" transform="translate(-90.921 -86.629)" fill="#fff"/>
  <path id="Path_8" data-name="Path 8" d="M218.609,126.632a10.9,10.9,0,0,1-.215,2.193,8.817,8.817,0,0,1-.644,2.027,10.909,10.909,0,0,1-2.313,3.457,11.057,11.057,0,0,1-3.457,2.336,10.488,10.488,0,0,1-4.22.859,10.889,10.889,0,0,1-10.872-10.872,10.5,10.5,0,0,1,.858-4.22,11.069,11.069,0,0,1,2.337-3.457,10.916,10.916,0,0,1,3.457-2.313,8.8,8.8,0,0,1,2.026-.644,10.908,10.908,0,0,1,2.194-.215,10.555,10.555,0,0,1,2.17.215,8.738,8.738,0,0,1,2.05.644,10.691,10.691,0,0,1,5.77,5.77,8.762,8.762,0,0,1,.644,2.05A10.556,10.556,0,0,1,218.609,126.632Zm-3.624,0a7.011,7.011,0,0,0-.572-2.79,7.183,7.183,0,0,0-3.862-3.862,7.143,7.143,0,0,0-5.6,0,7.549,7.549,0,0,0-2.289,1.55,7.459,7.459,0,0,0-1.574,2.313,7.142,7.142,0,0,0,0,5.6,9.376,9.376,0,0,0,.668,1.24,9.514,9.514,0,0,0,1.955,1.955,9.377,9.377,0,0,0,1.24.668,7.149,7.149,0,0,0,5.6,0,7.469,7.469,0,0,0,2.313-1.574,7.561,7.561,0,0,0,1.55-2.289A6.957,6.957,0,0,0,214.986,126.632Z" transform="translate(-111.739 -86.32)" fill="#fff"/>
  <path id="Path_9" data-name="Path 9" d="M274.14,126.632a10.9,10.9,0,0,1-.215,2.193,8.815,8.815,0,0,1-.644,2.027,10.909,10.909,0,0,1-2.313,3.457,11.058,11.058,0,0,1-3.457,2.336,10.488,10.488,0,0,1-4.22.859,10.889,10.889,0,0,1-10.872-10.872,10.5,10.5,0,0,1,.858-4.22,11.068,11.068,0,0,1,2.337-3.457,10.916,10.916,0,0,1,3.457-2.313A8.8,8.8,0,0,1,261.1,116a10.908,10.908,0,0,1,2.194-.215,10.555,10.555,0,0,1,2.17.215,8.738,8.738,0,0,1,2.05.644,10.691,10.691,0,0,1,5.77,5.77,8.76,8.76,0,0,1,.644,2.05A10.554,10.554,0,0,1,274.14,126.632Zm-3.624,0a7.011,7.011,0,0,0-.572-2.79,7.183,7.183,0,0,0-3.862-3.862,7.142,7.142,0,0,0-5.6,0,7.545,7.545,0,0,0-2.289,1.55,7.459,7.459,0,0,0-1.574,2.313,7.142,7.142,0,0,0,0,5.6,9.378,9.378,0,0,0,.668,1.24,9.514,9.514,0,0,0,1.955,1.955,9.348,9.348,0,0,0,1.24.668,7.148,7.148,0,0,0,5.6,0,7.467,7.467,0,0,0,2.313-1.574,7.561,7.561,0,0,0,1.55-2.289A6.957,6.957,0,0,0,270.517,126.632Z" transform="translate(-139.437 -86.32)" fill="#fff"/>
  <path id="Path_10" data-name="Path 10" d="M325.758,137.408V124.8l-5.079,7.439h-1.717l-4.912-7.534.048,12.708h-4.578l-.048-21.2,3.457.071,6.891,10.3,6.318-10.372,3.886.071.071,21.125Z" transform="translate(-167.895 -86.534)" fill="#fff"/>
  <path id="Path_11" data-name="Path 11" d="M171.842,186.6a10.574,10.574,0,0,1-.834,4.149,10.815,10.815,0,0,1-2.265,3.386,10.285,10.285,0,0,1-3.386,2.289,10.718,10.718,0,0,1-4.149.811h-5.889l-.31-.31V176.3l.334-.31h5.866a10.727,10.727,0,0,1,4.149.81,10.3,10.3,0,0,1,3.386,2.265,10.915,10.915,0,0,1,2.289,3.41,10.4,10.4,0,0,1,.835,4.124Zm-3.6-.048a7.039,7.039,0,0,0-.548-2.742,6.4,6.4,0,0,0-1.5-2.241,6.778,6.778,0,0,0-2.217-1.478,7.15,7.15,0,0,0-2.742-.548h-2.6v14.067h2.6a7.159,7.159,0,0,0,2.742-.548,7.092,7.092,0,0,0,3.719-3.719,7.157,7.157,0,0,0,.548-2.742Z" transform="translate(-90.85 -116.351)" fill="#fff"/>
  <path id="Path_12" data-name="Path 12" d="M201.807,197.258v-21.22h13.232v3.577h-9.632v5.245h5.1v3.577h-5.1v5.245h9.632v3.577Z" transform="translate(-114.192 -116.375)" fill="#fff"/>
  <path id="Path_13" data-name="Path 13" d="M250.093,191.37a5.678,5.678,0,0,1-.572,2.575,5.514,5.514,0,0,1-1.55,1.908,6.827,6.827,0,0,1-2.217,1.192,8.684,8.684,0,0,1-2.622.405,6.4,6.4,0,0,1-3.529-.977l1.741-3.052q.238.143.453.262a2.072,2.072,0,0,0,.477.143,3.617,3.617,0,0,0,1,.143h.286l.286-.048a4.367,4.367,0,0,0,1.383-.5,2.7,2.7,0,0,0,1-.93,2.35,2.35,0,0,0,.381-1.24,1.965,1.965,0,0,0-.62-1.431,8.419,8.419,0,0,0-1.574-1.1q-.477-.262-1-.524-.5-.262-1.049-.525a10.937,10.937,0,0,1-2.074-1.335,6.626,6.626,0,0,1-1.55-1.859,4.839,4.839,0,0,1-.477-1.216,6.1,6.1,0,0,1-.167-1.479,5.959,5.959,0,0,1,.477-2.313,8.2,8.2,0,0,1,.548-1.049,5.768,5.768,0,0,1,.715-.93,6.01,6.01,0,0,1,1.884-1.335,5.4,5.4,0,0,1,2.313-.5,6.272,6.272,0,0,1,3.457.977,2.98,2.98,0,0,1,.358.262q.167.144.357.286l-1.836,3.171a2.757,2.757,0,0,0-2.313-1.264,2.356,2.356,0,0,0-.572.071,2.66,2.66,0,0,0-1.478.906,2.594,2.594,0,0,0-.644,1.717,1.829,1.829,0,0,0,.668,1.407,7.568,7.568,0,0,0,1.645,1.073q.5.262,1.025.524t1.121.525a9.108,9.108,0,0,1,1.1.6,6.551,6.551,0,0,1,1.025.715,6.2,6.2,0,0,1,1.645,1.884,5.143,5.143,0,0,1,.668,2.718Z" transform="translate(-132.294 -116.185)" fill="#fff"/>
  <path id="Path_14" data-name="Path 14" d="M275.428,197.258v-21.2l4.387-.024-.024,21.173Z" transform="translate(-150.913 -116.375)" fill="#fff"/>
  <path id="Path_15" data-name="Path 15" d="M314.891,194.208a12.626,12.626,0,0,1-1.645,1.311,11.81,11.81,0,0,1-1.836.954,11.022,11.022,0,0,1-8.3-.048,11.259,11.259,0,0,1-3.457-2.337,11.077,11.077,0,0,1-2.313-3.457,10.379,10.379,0,0,1-.859-4.22,10.488,10.488,0,0,1,.859-4.22,11.076,11.076,0,0,1,2.313-3.457,11.259,11.259,0,0,1,3.457-2.337,10.636,10.636,0,0,1,4.22-.835,10.769,10.769,0,0,1,4.1.787q.214.12.429.215.238.1.477.215l-1.6,2.766-.31.31-.381-.167a7.134,7.134,0,0,0-2.718-.524,6.615,6.615,0,0,0-2.814.6,7.3,7.3,0,0,0-2.313,1.55,7.485,7.485,0,0,0-1.55,2.313,6.793,6.793,0,0,0-.572,2.79,6.9,6.9,0,0,0,.572,2.79,7.184,7.184,0,0,0,3.862,3.862,6.614,6.614,0,0,0,2.814.6,8.06,8.06,0,0,0,2.265-.334,5.986,5.986,0,0,0,2.05-1.049v-4.029h-4.006l2.05-3.553h5.269v9.37Z" transform="translate(-161.416 -116.137)" fill="#fff"/>
  <path id="Path_16" data-name="Path 16" d="M365.038,195.852l-1.812,1.431-11.4-13.233.024,13.447-3.744-.119-.024-19.933,2.36-1.478,10.944,13.209V175.848h3.6Z" transform="translate(-187.154 -116.28)" fill="#fff"/>
  <path id="Path_17" data-name="Path 17" d="M407.6,191.37a5.679,5.679,0,0,1-.572,2.575,5.513,5.513,0,0,1-1.55,1.908,6.827,6.827,0,0,1-2.217,1.192,8.689,8.689,0,0,1-2.623.405,6.4,6.4,0,0,1-3.529-.977l1.74-3.052q.238.143.453.262a2.084,2.084,0,0,0,.477.143,3.617,3.617,0,0,0,1,.143h.286l.286-.048a4.363,4.363,0,0,0,1.383-.5,2.693,2.693,0,0,0,1-.93,2.345,2.345,0,0,0,.381-1.24,1.966,1.966,0,0,0-.619-1.431,8.438,8.438,0,0,0-1.574-1.1q-.477-.262-1-.524-.5-.262-1.049-.525a10.941,10.941,0,0,1-2.075-1.335,6.627,6.627,0,0,1-1.55-1.859,4.853,4.853,0,0,1-.477-1.216,6.1,6.1,0,0,1-.167-1.479,5.968,5.968,0,0,1,.477-2.313,8.2,8.2,0,0,1,.548-1.049,5.8,5.8,0,0,1,.715-.93,6.016,6.016,0,0,1,1.884-1.335,5.4,5.4,0,0,1,2.313-.5,6.272,6.272,0,0,1,3.457.977,3.022,3.022,0,0,1,.357.262q.167.144.358.286l-1.836,3.171a2.759,2.759,0,0,0-2.313-1.264,2.351,2.351,0,0,0-.572.071,2.661,2.661,0,0,0-1.479.906,2.594,2.594,0,0,0-.644,1.717,1.829,1.829,0,0,0,.668,1.407,7.551,7.551,0,0,0,1.645,1.073q.5.262,1.025.524t1.121.525a9.141,9.141,0,0,1,1.1.6,6.571,6.571,0,0,1,1.025.715,6.208,6.208,0,0,1,1.645,1.884,5.142,5.142,0,0,1,.668,2.718Z" transform="translate(-210.856 -116.185)" fill="#fff"/>
  <path id="Path_18" data-name="Path 18" d="M155.084,246.418h34.189v5.318H155.084Z" transform="translate(-90.887 -151.48)" fill="#fff"/>
  <path id="Path_19" data-name="Path 19" d="M174.811,293.213A43.733,43.733,0,0,1,180,284.525a15.781,15.781,0,0,0-4.749,3.208q-2.461,2.3-4.955,5A30.918,30.918,0,0,0,174.811,293.213Zm-3.129,15.106a.287.287,0,0,1-.3-.238,9.944,9.944,0,0,1-.223-2.16,21.635,21.635,0,0,1,.778-5.02,41.046,41.046,0,0,1,2.589-7.052,37.289,37.289,0,0,1-4.749-.54q-2.462,2.685-4.94,4.94a16.786,16.786,0,0,1-4.876,3.209,5.718,5.718,0,0,1-2.16.445,5.365,5.365,0,0,1-2.477-.62.3.3,0,0,1-.175-.27.31.31,0,0,1,.048-.159.3.3,0,0,1,.27-.174.3.3,0,0,1,.159.048,4.632,4.632,0,0,0,2.144.54,7.316,7.316,0,0,0,2.621-.667,15.086,15.086,0,0,0,3.955-2.78q2.335-2.1,4.686-4.638a44.417,44.417,0,0,0-7.084-.89,11.509,11.509,0,0,0-5.353,1.366,6.964,6.964,0,0,0-.969.6.344.344,0,0,1-.19.064.3.3,0,0,1-.239-.111.365.365,0,0,1-.079-.206.324.324,0,0,1,.1-.239,8.1,8.1,0,0,1,1.1-.683,12.5,12.5,0,0,1,2.748-1.065,10.837,10.837,0,0,1,2.923-.365,59.071,59.071,0,0,1,7.576.969l.239-.27q1.97-2.128,3.86-3.987a28.837,28.837,0,0,1,3.7-3.145,9.413,9.413,0,0,1,3.558-1.6h.064a.3.3,0,0,1,.27.159.427.427,0,0,1,.032.159.383.383,0,0,1-.079.223,36.247,36.247,0,0,0-5.671,9.006,23.88,23.88,0,0,0,3.081-.477q1.112-.286,1.159-.3a.2.2,0,0,1,.111-.032.287.287,0,0,1,.143.048.305.305,0,0,1,.158.3.252.252,0,0,1-.222.27,11.157,11.157,0,0,1-1.223.333,25.587,25.587,0,0,1-3.24.508l-.286.016q-.333.731-.635,1.477-2.764,6.623-2.764,10.642a9.4,9.4,0,0,0,.19,1.97l.016.079a.346.346,0,0,1-.079.19A.278.278,0,0,1,171.682,308.318Z" transform="translate(-90.902 -170.035)" fill="#fff"/>
  <path id="Path_20" data-name="Path 20" d="M195.829,310.413a.283.283,0,0,1-.127-.032.287.287,0,0,1-.191-.286q0-.047,2.255-6.02l.048-.1a.319.319,0,0,1,.27-.175l.127.032a.288.288,0,0,1,.206.286l-.016.111-.778,2.017a12.777,12.777,0,0,1,.842-1.175,2.518,2.518,0,0,1,.54-.54.658.658,0,0,1,.349-.143h.064a.478.478,0,0,1,.413.238,4.7,4.7,0,0,0,.778,1.033.808.808,0,0,0,.572.222,1.26,1.26,0,0,0,.27-.032l1.128-.413a.4.4,0,0,1,.174-.048.225.225,0,0,1,.223.143.62.62,0,0,1,.064.239.187.187,0,0,1-.064.159,1.865,1.865,0,0,1-.349.19,8.814,8.814,0,0,1-1,.333,1.6,1.6,0,0,1-.477.08,1.544,1.544,0,0,1-1.048-.461,5.764,5.764,0,0,1-.747-1.016,10.737,10.737,0,0,0-1.842,2.6q-1.3,2.271-1.4,2.573A.33.33,0,0,1,195.829,310.413Z" transform="translate(-111.051 -180.104)" fill="#fff"/>
  <path id="Path_21" data-name="Path 21" d="M203.079,310.892a.307.307,0,0,1-.318-.333q.191-4.051,5.146-15.8L202.3,294.6a.3.3,0,0,1-.3-.334q0-.3.318-.3l5.861.159q.968-2.319,1.795-4.193a.3.3,0,0,1,.286-.191q.334,0,.334.318l-.032.127q-.714,1.62-1.7,3.955l6.354.19a.256.256,0,0,1,.206.1.307.307,0,0,1,.1.223.325.325,0,0,1-.1.238.337.337,0,0,1-.223.08l-6.607-.191q-4.972,11.754-5.194,15.8a.325.325,0,0,1-.318.318Z" transform="translate(-114.288 -173.086)" fill="#fff"/>
  <path id="Path_22" data-name="Path 22" d="M226.275,310.839h-.063a.838.838,0,0,1-.667-.239,1.556,1.556,0,0,1-.365-1.1q0-.1.032-.54a3.69,3.69,0,0,1,.365-1.255,3.6,3.6,0,0,1,1.509-1.747,1.2,1.2,0,0,1,.461-.191.309.309,0,0,1,.159.048.3.3,0,0,1,.174.3.281.281,0,0,1-.223.27,1.5,1.5,0,0,0-.286.143,2.929,2.929,0,0,0-1.207,1.43,3.827,3.827,0,0,0-.35,1.509q0,.731.381.731a1.008,1.008,0,0,0,.413-.111,3.342,3.342,0,0,0,1.588-2.033,4.049,4.049,0,0,0,.159-1.08,3.041,3.041,0,0,0-.318-1.35.494.494,0,0,1-.064-.19q0-.334.318-.334a.349.349,0,0,1,.27.175,1.967,1.967,0,0,0,1.191.985,1.319,1.319,0,0,0,.445.079,1.677,1.677,0,0,0,.778-.207.424.424,0,0,1,.207-.064.445.445,0,0,1,.1.016c.042.01.085.053.127.127a.283.283,0,0,1,.08.174.324.324,0,0,1-.159.27,1.829,1.829,0,0,1-1.747.223,3.646,3.646,0,0,1-.6-.254q.016.19.016.4a4.443,4.443,0,0,1-.174,1.207,3.9,3.9,0,0,1-1.922,2.414A1.757,1.757,0,0,1,226.275,310.839Z" transform="translate(-125.85 -180.752)" fill="#fff"/>
  <path id="Path_23" data-name="Path 23" d="M231.05,308.446a.362.362,0,0,1-.333-.191.519.519,0,0,1-.1-.365,5.143,5.143,0,0,1,.238-1.191,59.777,59.777,0,0,1,2.875-7.259q1.366-3.018,2.859-5.734,2.065-3.78,3.066-3.78a.408.408,0,0,1,.27.079.7.7,0,0,1,.286.651,2.777,2.777,0,0,1-.08.6,9.285,9.285,0,0,1-1.429,3.049,22.221,22.221,0,0,1-3.844,4.225q-.731,1.525-1.525,3.4a7.538,7.538,0,0,0,3.018-1.144,14.775,14.775,0,0,0,2.652-2.319.3.3,0,0,1,.223-.1.3.3,0,0,1,.333.3.358.358,0,0,1-.1.238,16.01,16.01,0,0,1-2.843,2.446,8.02,8.02,0,0,1-3.288,1.207,4.291,4.291,0,0,1,.222,1.366,6.855,6.855,0,0,1-.492,2.255,4.393,4.393,0,0,1-1.731,2.16A.516.516,0,0,1,231.05,308.446Zm.239-.842a4.5,4.5,0,0,0,1.318-2.049,5.072,5.072,0,0,0,.3-1.652,3.6,3.6,0,0,0-.079-.762q-.413,1.016-.731,1.89A17.43,17.43,0,0,0,231.288,307.6Zm4.32-10.642a12.956,12.956,0,0,0,3.907-5.845,2.159,2.159,0,0,0,.08-.461l-.016-.079Q238.372,291.387,235.608,296.962Z" transform="translate(-128.564 -173.181)" fill="#fff"/>
  <path id="Path_24" data-name="Path 24" d="M258.864,305.23q-.572,0-.572-1.287a12.568,12.568,0,0,1,.4-2.526,36.745,36.745,0,0,1,1.08-3.606q-3.049,3.955-3.828,3.955a.583.583,0,0,1-.429-.143,1.224,1.224,0,0,1-.349-.953c0-.053.01-.217.032-.492a3.211,3.211,0,0,1,.365-1.159,10.387,10.387,0,0,1,.921-1.588,4.62,4.62,0,0,1,1.637-1.573,1.613,1.613,0,0,1,.635-.143,1.34,1.34,0,0,1,.636.206,1.453,1.453,0,0,1,.6.556q.365-.477.731-.985,1.016-2.24,2.287-4.685a22.816,22.816,0,0,1,2.176-3.685.865.865,0,0,1,.619-.365.474.474,0,0,1,.238.063.684.684,0,0,1,.286.636,6.657,6.657,0,0,1-1.176,2.748q-1.128,1.859-3.875,5.607a30.769,30.769,0,0,0-1.826,5.21,13.462,13.462,0,0,0-.524,2.923,2.556,2.556,0,0,0,.064.667.282.282,0,0,1,.206.3Q259.2,305.182,258.864,305.23Zm-2.954-4.1.079-.032q.731-.334,3.621-4.114l-.222-.254a.953.953,0,0,0-.715-.381.972.972,0,0,0-.286.079,6.273,6.273,0,0,0-2.255,2.859,3.394,3.394,0,0,0-.333,1.319Q255.8,301.052,255.91,301.131Zm6.941-8.609q2.748-3.939,2.827-4.988A27.521,27.521,0,0,0,262.851,292.522Z" transform="translate(-140.805 -171.6)" fill="#fff"/>
  <path id="Path_25" data-name="Path 25" d="M270.212,309.792h-.159a1.477,1.477,0,0,1-1.588-1.271,3.606,3.606,0,0,1-.032-.476,3.913,3.913,0,0,1,.461-1.747,3,3,0,0,1,1.636-1.573,1.515,1.515,0,0,1,.413-.063.953.953,0,0,1,.445.127.8.8,0,0,1,.365.762,1.158,1.158,0,0,1-.81,1.16,1.256,1.256,0,0,1-.4.064,2.622,2.622,0,0,1-1.064-.239,3.281,3.281,0,0,0-.429,1.525q0,1.1.985,1.1,2.161,0,4.463-3.272a.32.32,0,0,1,.254-.143.344.344,0,0,1,.191.063.32.32,0,0,1,.143.254.341.341,0,0,1-.064.191Q272.88,309.506,270.212,309.792Zm.349-3.669a.9.9,0,0,0,.175-.016.554.554,0,0,0,.4-.54.314.314,0,0,0-.032-.143c0-.085-.064-.127-.191-.127a.853.853,0,0,0-.19.032,1.957,1.957,0,0,0-.874.651A2.139,2.139,0,0,0,270.561,306.123Z" transform="translate(-147.424 -180.531)" fill="#fff"/>
  <path id="Path_26" data-name="Path 26" d="M278.186,312.3a.611.611,0,0,1-.7-.683q0-1.271,2.3-3.319a17.753,17.753,0,0,0-.286-2.478l-.016-.3a1.472,1.472,0,0,1,.413-1.033,2.146,2.146,0,0,1,.858-.619l.127-.032a.281.281,0,0,1,.143.048.241.241,0,0,1,.127.143.282.282,0,0,1-.159.429q-.889.444-.89,1.08l.016.174a18.254,18.254,0,0,1,.27,2.081q1.318-1.065,2.319-1.732,1-.683,1.08-.715a.336.336,0,0,1,.175-.048.267.267,0,0,1,.3.3.368.368,0,0,1-.032.127.232.232,0,0,1-.111.143q-.1.047-1.207.81-1.1.747-2.478,1.906v.207a3.575,3.575,0,0,1-1.223,3.114A1.868,1.868,0,0,1,278.186,312.3Zm.016-.636a1.3,1.3,0,0,0,.62-.254,2.336,2.336,0,0,0,.747-1.016,4.18,4.18,0,0,0,.222-1.239q-1.668,1.6-1.668,2.43l.016.079Z" transform="translate(-151.94 -180.12)" fill="#fff"/>
  <path id="Path_27" data-name="Path 27" d="M289.729,307.563a.846.846,0,0,1-.493-.143.977.977,0,0,1-.317-.762,10.582,10.582,0,0,1,1.636-4.1.325.325,0,0,1,.3-.159.282.282,0,0,1,.127.032.347.347,0,0,1,.175.27.334.334,0,0,1-.048.174,17.262,17.262,0,0,0-1.207,2.446,4.264,4.264,0,0,0-.333,1.3.463.463,0,0,0,.048.254v.032l.1.016a1.206,1.206,0,0,0,.318-.048,3.314,3.314,0,0,0,.6-.286,18.214,18.214,0,0,0,3.4-2.843.3.3,0,0,1,.223-.1q.333,0,.333.318,0,.206-1.509,1.572Q290.872,307.515,289.729,307.563Zm1.811-6.084a.318.318,0,0,1-.143-.032.307.307,0,0,1-.174-.286,2.6,2.6,0,0,1,.254-.572.3.3,0,0,1,.27-.175.312.312,0,0,1,.143.032.319.319,0,0,1,.174.3,3.98,3.98,0,0,1-.238.556A.33.33,0,0,1,291.54,301.479Z" transform="translate(-157.642 -178.413)" fill="#fff"/>
  <path id="Path_28" data-name="Path 28" d="M289.688,319.735a.9.9,0,0,1-.921-.81,1.367,1.367,0,0,1-.016-.222q0-1.462,2.16-4.432a25.748,25.748,0,0,1,3.765-4.019,29.614,29.614,0,0,1,2.414-1.906q.334-.746.6-1.429-3,3.4-4.178,3.4a.69.69,0,0,1-.508-.207.866.866,0,0,1-.207-.635,5.067,5.067,0,0,1,.858-2.446,5.57,5.57,0,0,1,1.969-2.1,2,2,0,0,1,.842-.206,1.5,1.5,0,0,1,1,.4.318.318,0,0,1,.111.254.287.287,0,0,1-.1.207.292.292,0,0,1-.238.1.26.26,0,0,1-.191-.079.888.888,0,0,0-.6-.238,1.212,1.212,0,0,0-.54.143,4.91,4.91,0,0,0-1.732,1.874,4.594,4.594,0,0,0-.746,2.1c0,.116.016.185.048.206l.238-.048a2.927,2.927,0,0,0,.778-.445,26.829,26.829,0,0,0,3.987-4.178.318.318,0,0,1,.254-.111.43.43,0,0,1,.159.032.323.323,0,0,1,.158.27q0,.1-.984,2.462,1.413-.922,2.319-1.4.906-.492.953-.508a.282.282,0,0,1,.127-.032.394.394,0,0,1,.143.032.247.247,0,0,1,.127.127.372.372,0,0,1,.048.159.308.308,0,0,1-.174.286q-.064.016-1.191.635t-2.811,1.779q-2.939,6.957-6.02,9.975A3.085,3.085,0,0,1,289.688,319.735Zm0-.636a2.518,2.518,0,0,0,1.477-.842q2.669-2.6,5.417-8.752-.747.571-1.493,1.223a26.016,26.016,0,0,0-3.637,3.891q-2.065,2.812-2.065,4.1Q289.387,319.1,289.688,319.1Z" transform="translate(-157.559 -180.563)" fill="#fff"/>
  <path id="Path_29" data-name="Path 29" d="M311.022,310.3a.389.389,0,0,1-.143-.032.3.3,0,0,1-.175-.27q0-.08,2.7-6.258a.287.287,0,0,1,.286-.191l.127.032a.276.276,0,0,1,.191.27q0,.063-1.175,2.779a7.228,7.228,0,0,1,1.985-2,1.51,1.51,0,0,1,.731-.238.493.493,0,0,1,.222.048.823.823,0,0,1,.223.19.715.715,0,0,1,.127.477l-.032.667q0,.334.048.89a1.036,1.036,0,0,0,.429.89.4.4,0,0,0,.206.048.94.94,0,0,0,.222-.032,5.7,5.7,0,0,0,2.113-1.239q.35-.3,1.049-1a.372.372,0,0,1,.223-.111.3.3,0,0,1,.222.1.373.373,0,0,1,.111.223.337.337,0,0,1-.079.222q-.064.08-.588.588a12.646,12.646,0,0,1-1.3,1.048,5.279,5.279,0,0,1-1.6.794,1.752,1.752,0,0,1-.4.048.95.95,0,0,1-.651-.238,1.848,1.848,0,0,1-.572-1.239,9.491,9.491,0,0,1-.064-1.033l.032-.62a.093.093,0,0,0-.016-.064,1.117,1.117,0,0,0-.333.159q-1.319.747-3.494,4.384-.318.524-.349.556A.325.325,0,0,1,311.022,310.3Z" transform="translate(-168.508 -179.978)" fill="#fff"/>
</svg>
